<svg xmlns="http://www.w3.org/2000/svg" viewBox="0 0 1011.87 673.68"><defs><style>.a{fill:#fff;}</style></defs><path class="a" d="M1003.21,348.05H10.27c-7.1,0-12,6.54-9.66,12.75L130.78,649.29c5.62,14.62,20.52,24.39,37.22,24.39H693.77c29.05,0,56.24-13.26,72.77-35.48l243.78-277.53C1014.29,355.33,1010.19,348.05,1003.21,348.05ZM154.54,471.75a29.91,29.91,0,1,1,29.91-29.9A29.9,29.9,0,0,1,154.54,471.75Zm117,0a29.91,29.91,0,1,1,29.91-29.9A29.9,29.9,0,0,1,271.54,471.75Zm117,0a29.91,29.91,0,1,1,29.91-29.9A29.9,29.9,0,0,1,388.54,471.75Z"/><path class="a" d="M590.26,328.36,548.49,254.3h-208V218.89h188L520,203.77c-10.59-18.77-33-30.72-57.49-30.72H239.4c-5.72,0-10.36,3.93-10.36,8.78V324.27c0,6.23,6,11.28,13.3,11.28H584.91C589.27,335.55,592.14,331.69,590.26,328.36Z"/><path class="a" d="M226.21,77.22H83.91V2a2,2,0,0,0-2-2H74.53a2,2,0,0,0-2,2V77.22H4c-1.56,0-2.82,1.53-2.82,3.43v19.53c0,1.89,1.26,3.43,2.82,3.43H38.39c1.56,0,2.82,1.53,2.82,3.43V332.13A3.16,3.16,0,0,0,44,335.55H203.16a3.17,3.17,0,0,0,2.83-3.42V105.31a3.74,3.74,0,0,1,1.11-2.73l20.82-19.2C230.07,81.39,228.92,77.22,226.21,77.22ZM154.54,296.71a29.91,29.91,0,1,1,29.91-29.91A29.91,29.91,0,0,1,154.54,296.71Zm0-93.75a29.91,29.91,0,1,1,29.91-29.91A29.91,29.91,0,0,1,154.54,203Z"/></svg>